<mxfile host="app.diagrams.net" agent="Mozilla/5.0 (Windows NT 10.0; Win64; x64) AppleWebKit/537.36 (KHTML, like Gecko) Chrome/137.0.0.0 Safari/537.36 Edg/137.0.0.0" version="27.1.5" pages="7">
  <diagram name="主流程" id="VlKL0fDLlQblSBwCt7Gt">
    <mxGraphModel dx="1901" dy="1129" grid="1" gridSize="10" guides="1" tooltips="1" connect="1" arrows="1" fold="1" page="1" pageScale="1" pageWidth="827" pageHeight="1169" math="0" shadow="0">
      <root>
        <mxCell id="0" />
        <mxCell id="1" parent="0" />
        <mxCell id="wmq7Lw8W8zSvWx2ItrFe-1" style="edgeStyle=orthogonalEdgeStyle;rounded=0;orthogonalLoop=1;jettySize=auto;html=1;exitX=0.5;exitY=1;exitDx=0;exitDy=0;entryX=0.5;entryY=0;entryDx=0;entryDy=0;strokeWidth=1;fontStyle=1;fontColor=#CC0000;strokeColor=light-dark(#CC0000,#CC0000);" parent="1" source="wmq7Lw8W8zSvWx2ItrFe-2" target="wmq7Lw8W8zSvWx2ItrFe-4" edge="1">
          <mxGeometry x="330" y="-80" as="geometry" />
        </mxCell>
        <UserObject label="&lt;font style=&quot;font-size: 20px;&quot;&gt;dicom加载器&lt;/font&gt;" link="data:page/id,m2E5OhCdITRILelNDdLX" id="wmq7Lw8W8zSvWx2ItrFe-2">
          <mxCell style="rounded=0;whiteSpace=wrap;html=1;strokeWidth=1;fontStyle=1;fontColor=#CC0000;strokeColor=light-dark(#CC0000,#CC0000);" parent="1" vertex="1">
            <mxGeometry x="360" y="910" width="200" height="50" as="geometry" />
          </mxCell>
        </UserObject>
        <mxCell id="wmq7Lw8W8zSvWx2ItrFe-3" style="edgeStyle=orthogonalEdgeStyle;rounded=0;orthogonalLoop=1;jettySize=auto;html=1;exitX=0.5;exitY=1;exitDx=0;exitDy=0;entryX=0.5;entryY=0;entryDx=0;entryDy=0;strokeWidth=1;fontStyle=1;fontColor=#CC0000;strokeColor=light-dark(#CC0000,#CC0000);" parent="1" source="wmq7Lw8W8zSvWx2ItrFe-4" target="wmq7Lw8W8zSvWx2ItrFe-6" edge="1">
          <mxGeometry x="330" y="230" as="geometry" />
        </mxCell>
        <UserObject label="&lt;font style=&quot;font-size: 20px;&quot;&gt;volumeRender&lt;/font&gt;" link="data:page/id,rbHGBFfvOv6rpGHGIKEy" id="wmq7Lw8W8zSvWx2ItrFe-4">
          <mxCell style="rounded=0;whiteSpace=wrap;html=1;strokeWidth=1;fontStyle=1;fontColor=#CC0000;strokeColor=light-dark(#CC0000,#CC0000);" parent="1" vertex="1">
            <mxGeometry x="365" y="1030" width="190" height="50" as="geometry" />
          </mxCell>
        </UserObject>
        <mxCell id="wmq7Lw8W8zSvWx2ItrFe-5" style="edgeStyle=orthogonalEdgeStyle;rounded=0;orthogonalLoop=1;jettySize=auto;html=1;exitX=0.5;exitY=1;exitDx=0;exitDy=0;entryX=0.5;entryY=0;entryDx=0;entryDy=0;strokeWidth=1;fontStyle=1;fontColor=#CC0000;strokeColor=light-dark(#CC0000,#CC0000);" parent="1" source="wmq7Lw8W8zSvWx2ItrFe-6" target="wmq7Lw8W8zSvWx2ItrFe-8" edge="1">
          <mxGeometry x="330" y="550" as="geometry" />
        </mxCell>
        <UserObject label="&lt;font style=&quot;font-size: 20px;&quot;&gt;volume切片器&lt;/font&gt;" link="data:page/id,Nydb71bSAcxup5t_4-4M" id="wmq7Lw8W8zSvWx2ItrFe-6">
          <mxCell style="rounded=0;whiteSpace=wrap;html=1;strokeWidth=1;fontStyle=1;fontColor=#CC0000;strokeColor=light-dark(#CC0000,#CC0000);" parent="1" vertex="1">
            <mxGeometry x="366.25" y="1140" width="187.5" height="50" as="geometry" />
          </mxCell>
        </UserObject>
        <mxCell id="wmq7Lw8W8zSvWx2ItrFe-7" style="edgeStyle=orthogonalEdgeStyle;rounded=0;orthogonalLoop=1;jettySize=auto;html=1;exitX=0.5;exitY=1;exitDx=0;exitDy=0;entryX=0.5;entryY=0;entryDx=0;entryDy=0;strokeWidth=1;fontStyle=1;fontColor=#CC0000;strokeColor=light-dark(#CC0000,#CC0000);" parent="1" source="wmq7Lw8W8zSvWx2ItrFe-8" target="wmq7Lw8W8zSvWx2ItrFe-11" edge="1">
          <mxGeometry x="330" y="760" as="geometry" />
        </mxCell>
        <UserObject label="&lt;font style=&quot;font-size: 20px;&quot;&gt;cornerstone&lt;/font&gt;" link="data:page/id,lS9pyTZuqnwhLf4VTJ5i" id="wmq7Lw8W8zSvWx2ItrFe-8">
          <mxCell style="rounded=0;whiteSpace=wrap;html=1;strokeWidth=1;fontStyle=1;fontColor=#CC0000;strokeColor=light-dark(#CC0000,#CC0000);" parent="1" vertex="1">
            <mxGeometry x="361.25" y="1260" width="197.5" height="70" as="geometry" />
          </mxCell>
        </UserObject>
        <mxCell id="wmq7Lw8W8zSvWx2ItrFe-9" style="edgeStyle=orthogonalEdgeStyle;rounded=0;orthogonalLoop=1;jettySize=auto;html=1;exitX=0.5;exitY=1;exitDx=0;exitDy=0;entryX=1;entryY=0.5;entryDx=0;entryDy=0;strokeWidth=1;fontStyle=1;fontColor=#CC0000;strokeColor=light-dark(#CC0000,#CC0000);" parent="1" source="wmq7Lw8W8zSvWx2ItrFe-10" target="wmq7Lw8W8zSvWx2ItrFe-11" edge="1">
          <mxGeometry x="435" y="920" as="geometry" />
        </mxCell>
        <UserObject label="&lt;font style=&quot;font-size: 20px;&quot;&gt;cornerstoneTools&lt;/font&gt;" link="data:page/id,ZE1VF8OEmN4xa_Mu9JHT" id="wmq7Lw8W8zSvWx2ItrFe-10">
          <mxCell style="rounded=0;whiteSpace=wrap;html=1;strokeWidth=1;fontStyle=1;fontColor=#CC0000;strokeColor=light-dark(#CC0000,#CC0000);" parent="1" vertex="1">
            <mxGeometry x="700" y="1265" width="200" height="60" as="geometry" />
          </mxCell>
        </UserObject>
        <mxCell id="wmq7Lw8W8zSvWx2ItrFe-11" value="&lt;font style=&quot;font-size: 20px;&quot;&gt;canvas&lt;/font&gt;" style="rounded=0;whiteSpace=wrap;html=1;strokeWidth=1;fontStyle=1;fontColor=#CC0000;strokeColor=light-dark(#CC0000,#CC0000);" parent="1" vertex="1">
          <mxGeometry x="402.5" y="1420" width="115" height="60" as="geometry" />
        </mxCell>
        <mxCell id="wmq7Lw8W8zSvWx2ItrFe-12" style="edgeStyle=orthogonalEdgeStyle;rounded=0;orthogonalLoop=1;jettySize=auto;html=1;exitX=0.5;exitY=1;exitDx=0;exitDy=0;entryX=0.5;entryY=0;entryDx=0;entryDy=0;strokeWidth=1;fontStyle=1;fontColor=#CC0000;strokeColor=light-dark(#CC0000,#CC0000);" parent="1" source="wmq7Lw8W8zSvWx2ItrFe-14" target="wmq7Lw8W8zSvWx2ItrFe-2" edge="1">
          <mxGeometry x="330" y="-800" as="geometry" />
        </mxCell>
        <UserObject label="&lt;font style=&quot;font-size: 20px;&quot;&gt;序列ID&lt;/font&gt;" link="data:page/id,XVDptblR2TXF8OSc0-Fg" id="wmq7Lw8W8zSvWx2ItrFe-14">
          <mxCell style="rounded=0;whiteSpace=wrap;html=1;strokeWidth=1;fontStyle=1;fontColor=#CC0000;strokeColor=light-dark(#CC0000,#CC0000);" parent="1" vertex="1">
            <mxGeometry x="400" y="770" width="120" height="60" as="geometry" />
          </mxCell>
        </UserObject>
        <mxCell id="ZRRCeqGUdf48qssuUR4u-5" style="edgeStyle=orthogonalEdgeStyle;rounded=0;orthogonalLoop=1;jettySize=auto;html=1;exitX=0.5;exitY=1;exitDx=0;exitDy=0;entryX=0.5;entryY=0;entryDx=0;entryDy=0;strokeColor=light-dark(#000000,#CC0000);" edge="1" parent="1" source="ZRRCeqGUdf48qssuUR4u-1" target="ZRRCeqGUdf48qssuUR4u-2">
          <mxGeometry relative="1" as="geometry" />
        </mxCell>
        <UserObject label="&lt;font style=&quot;font-size: 20px;&quot;&gt;toolsManager.js&lt;/font&gt;" link="data:page/id,ZE1VF8OEmN4xa_Mu9JHT" id="ZRRCeqGUdf48qssuUR4u-1">
          <mxCell style="rounded=0;whiteSpace=wrap;html=1;strokeWidth=1;fontStyle=1;fontColor=#CC0000;strokeColor=light-dark(#CC0000,#CC0000);" vertex="1" parent="1">
            <mxGeometry x="700" y="770" width="200" height="60" as="geometry" />
          </mxCell>
        </UserObject>
        <mxCell id="ZRRCeqGUdf48qssuUR4u-6" style="edgeStyle=orthogonalEdgeStyle;rounded=0;orthogonalLoop=1;jettySize=auto;html=1;exitX=0.5;exitY=1;exitDx=0;exitDy=0;entryX=0.5;entryY=0;entryDx=0;entryDy=0;strokeColor=light-dark(#000000,#CC0000);" edge="1" parent="1" source="ZRRCeqGUdf48qssuUR4u-2" target="ZRRCeqGUdf48qssuUR4u-3">
          <mxGeometry relative="1" as="geometry" />
        </mxCell>
        <UserObject label="&lt;font style=&quot;font-size: 20px;&quot;&gt;toolSideBar&lt;/font&gt;" link="data:page/id,ZE1VF8OEmN4xa_Mu9JHT" id="ZRRCeqGUdf48qssuUR4u-2">
          <mxCell style="rounded=0;whiteSpace=wrap;html=1;strokeWidth=1;fontStyle=1;fontColor=#CC0000;strokeColor=light-dark(#CC0000,#CC0000);" vertex="1" parent="1">
            <mxGeometry x="700" y="900" width="200" height="60" as="geometry" />
          </mxCell>
        </UserObject>
        <mxCell id="ZRRCeqGUdf48qssuUR4u-7" style="edgeStyle=orthogonalEdgeStyle;rounded=0;orthogonalLoop=1;jettySize=auto;html=1;exitX=0.5;exitY=1;exitDx=0;exitDy=0;entryX=0.5;entryY=0;entryDx=0;entryDy=0;strokeColor=light-dark(#000000,#CC0000);" edge="1" parent="1" source="ZRRCeqGUdf48qssuUR4u-3" target="ZRRCeqGUdf48qssuUR4u-4">
          <mxGeometry relative="1" as="geometry" />
        </mxCell>
        <UserObject label="&lt;span style=&quot;font-size: 20px;&quot;&gt;权限、自定义过滤&lt;/span&gt;" link="data:page/id,ZE1VF8OEmN4xa_Mu9JHT" id="ZRRCeqGUdf48qssuUR4u-3">
          <mxCell style="rounded=0;whiteSpace=wrap;html=1;strokeWidth=1;fontStyle=1;fontColor=#CC0000;strokeColor=light-dark(#CC0000,#CC0000);" vertex="1" parent="1">
            <mxGeometry x="700" y="1030" width="200" height="60" as="geometry" />
          </mxCell>
        </UserObject>
        <mxCell id="ZRRCeqGUdf48qssuUR4u-8" style="edgeStyle=orthogonalEdgeStyle;rounded=0;orthogonalLoop=1;jettySize=auto;html=1;exitX=0.5;exitY=1;exitDx=0;exitDy=0;entryX=0.5;entryY=0;entryDx=0;entryDy=0;strokeColor=light-dark(#000000,#CC0000);" edge="1" parent="1" source="ZRRCeqGUdf48qssuUR4u-4" target="wmq7Lw8W8zSvWx2ItrFe-10">
          <mxGeometry relative="1" as="geometry" />
        </mxCell>
        <UserObject label="&lt;span style=&quot;font-size: 20px;&quot;&gt;tool.jsx&lt;/span&gt;" link="data:page/id,ZE1VF8OEmN4xa_Mu9JHT" id="ZRRCeqGUdf48qssuUR4u-4">
          <mxCell style="rounded=0;whiteSpace=wrap;html=1;strokeWidth=1;fontStyle=1;fontColor=#CC0000;strokeColor=light-dark(#CC0000,#CC0000);" vertex="1" parent="1">
            <mxGeometry x="700" y="1140" width="200" height="60" as="geometry" />
          </mxCell>
        </UserObject>
      </root>
    </mxGraphModel>
  </diagram>
  <diagram id="XVDptblR2TXF8OSc0-Fg" name="序列ID">
    <mxGraphModel grid="1" page="1" gridSize="10" guides="1" tooltips="1" connect="1" arrows="1" fold="1" pageScale="1" pageWidth="827" pageHeight="1169" math="0" shadow="0">
      <root>
        <mxCell id="0" />
        <mxCell id="1" parent="0" />
        <mxCell id="f8T4_GTA3KpqETQEiIr7-1" style="edgeStyle=orthogonalEdgeStyle;rounded=0;orthogonalLoop=1;jettySize=auto;html=1;exitX=0.5;exitY=1;exitDx=0;exitDy=0;entryX=0.5;entryY=0;entryDx=0;entryDy=0;strokeWidth=1;fontColor=#CC6600;strokeColor=#CC6600;" edge="1" parent="1" source="f8T4_GTA3KpqETQEiIr7-3" target="f8T4_GTA3KpqETQEiIr7-5">
          <mxGeometry x="595" y="-830" as="geometry" />
        </mxCell>
        <mxCell id="f8T4_GTA3KpqETQEiIr7-2" style="edgeStyle=orthogonalEdgeStyle;rounded=0;orthogonalLoop=1;jettySize=auto;html=1;exitX=0.5;exitY=1;exitDx=0;exitDy=0;entryX=0.5;entryY=0;entryDx=0;entryDy=0;strokeColor=#CC6600;strokeWidth=1;fontColor=#CC6600;" edge="1" parent="1" source="f8T4_GTA3KpqETQEiIr7-3" target="f8T4_GTA3KpqETQEiIr7-7">
          <mxGeometry x="520" y="-830" as="geometry" />
        </mxCell>
        <mxCell id="f8T4_GTA3KpqETQEiIr7-3" value="患者ID" style="rounded=0;whiteSpace=wrap;html=1;strokeWidth=1;strokeColor=#FF8000;fontColor=#CC6600;" vertex="1" parent="1">
          <mxGeometry x="240" y="150" width="110" height="40" as="geometry" />
        </mxCell>
        <mxCell id="f8T4_GTA3KpqETQEiIr7-4" style="edgeStyle=orthogonalEdgeStyle;rounded=0;orthogonalLoop=1;jettySize=auto;html=1;exitX=0.5;exitY=1;exitDx=0;exitDy=0;entryX=0.5;entryY=0;entryDx=0;entryDy=0;strokeColor=#CC6600;strokeWidth=1;fontColor=#CC6600;" edge="1" parent="1" source="f8T4_GTA3KpqETQEiIr7-5" target="f8T4_GTA3KpqETQEiIr7-13">
          <mxGeometry x="665" y="-750" as="geometry" />
        </mxCell>
        <mxCell id="f8T4_GTA3KpqETQEiIr7-5" value="拉取ALL接口" style="rounded=0;whiteSpace=wrap;html=1;strokeWidth=1;strokeColor=#FF8000;fontColor=#CC6600;" vertex="1" parent="1">
          <mxGeometry x="310" y="230" width="110" height="40" as="geometry" />
        </mxCell>
        <mxCell id="f8T4_GTA3KpqETQEiIr7-6" style="edgeStyle=orthogonalEdgeStyle;rounded=0;orthogonalLoop=1;jettySize=auto;html=1;exitX=0.5;exitY=1;exitDx=0;exitDy=0;entryX=0.5;entryY=0;entryDx=0;entryDy=0;strokeColor=#CC6600;strokeWidth=1;fontColor=#CC6600;" edge="1" parent="1" source="f8T4_GTA3KpqETQEiIr7-7" target="f8T4_GTA3KpqETQEiIr7-11">
          <mxGeometry x="520" y="-710" as="geometry" />
        </mxCell>
        <mxCell id="f8T4_GTA3KpqETQEiIr7-7" value="获取最后一次激活的序列" style="rounded=0;whiteSpace=wrap;html=1;strokeWidth=1;strokeColor=#FF8000;fontColor=#CC6600;" vertex="1" parent="1">
          <mxGeometry x="150" y="270" width="140" height="40" as="geometry" />
        </mxCell>
        <mxCell id="f8T4_GTA3KpqETQEiIr7-8" style="edgeStyle=orthogonalEdgeStyle;rounded=0;orthogonalLoop=1;jettySize=auto;html=1;exitX=0.5;exitY=1;exitDx=0;exitDy=0;entryX=0.5;entryY=0;entryDx=0;entryDy=0;strokeColor=#CC6600;strokeWidth=1;fontColor=#CC6600;" edge="1" parent="1" source="f8T4_GTA3KpqETQEiIr7-11" target="f8T4_GTA3KpqETQEiIr7-14">
          <mxGeometry x="520" y="-590" as="geometry" />
        </mxCell>
        <mxCell id="f8T4_GTA3KpqETQEiIr7-9" style="edgeStyle=orthogonalEdgeStyle;rounded=0;orthogonalLoop=1;jettySize=auto;html=1;exitX=0.5;exitY=1;exitDx=0;exitDy=0;entryX=0.5;entryY=0;entryDx=0;entryDy=0;strokeColor=#CC6600;strokeWidth=1;fontColor=#CC6600;" edge="1" parent="1" source="f8T4_GTA3KpqETQEiIr7-11" target="f8T4_GTA3KpqETQEiIr7-15">
          <mxGeometry x="595" y="-590" as="geometry" />
        </mxCell>
        <mxCell id="f8T4_GTA3KpqETQEiIr7-10" style="edgeStyle=orthogonalEdgeStyle;rounded=0;orthogonalLoop=1;jettySize=auto;html=1;exitX=0.5;exitY=1;exitDx=0;exitDy=0;entryX=0.5;entryY=0;entryDx=0;entryDy=0;strokeColor=#CC6600;strokeWidth=1;fontColor=#CC6600;" edge="1" parent="1" source="f8T4_GTA3KpqETQEiIr7-11" target="f8T4_GTA3KpqETQEiIr7-16">
          <mxGeometry x="595" y="-590" as="geometry" />
        </mxCell>
        <mxCell id="f8T4_GTA3KpqETQEiIr7-11" value="渲染患者数据树" style="rounded=0;whiteSpace=wrap;html=1;strokeWidth=1;strokeColor=#FF8000;fontColor=#CC6600;" vertex="1" parent="1">
          <mxGeometry x="240" y="390" width="110" height="40" as="geometry" />
        </mxCell>
        <mxCell id="f8T4_GTA3KpqETQEiIr7-12" style="edgeStyle=orthogonalEdgeStyle;rounded=0;orthogonalLoop=1;jettySize=auto;html=1;exitX=0.5;exitY=1;exitDx=0;exitDy=0;entryX=0.5;entryY=0;entryDx=0;entryDy=0;strokeColor=#CC6600;strokeWidth=1;fontColor=#CC6600;" edge="1" parent="1" source="f8T4_GTA3KpqETQEiIr7-13" target="f8T4_GTA3KpqETQEiIr7-11">
          <mxGeometry x="595" y="-680" as="geometry" />
        </mxCell>
        <mxCell id="f8T4_GTA3KpqETQEiIr7-13" value="caseNarrator" style="rounded=0;whiteSpace=wrap;html=1;strokeWidth=1;strokeColor=#FF8000;fontColor=#CC6600;" vertex="1" parent="1">
          <mxGeometry x="310" y="300" width="110" height="40" as="geometry" />
        </mxCell>
        <mxCell id="f8T4_GTA3KpqETQEiIr7-14" value="redux&lt;br&gt;activeSeries&lt;br&gt;序列ID" style="rounded=0;whiteSpace=wrap;html=1;strokeWidth=1;strokeColor=#FF8000;fontColor=#CC6600;" vertex="1" parent="1">
          <mxGeometry x="165" y="480" width="110" height="50" as="geometry" />
        </mxCell>
        <mxCell id="f8T4_GTA3KpqETQEiIr7-15" value="redux&lt;br&gt;activeStructureSequenceId&lt;br&gt;结构集ID" style="rounded=0;whiteSpace=wrap;html=1;strokeWidth=1;strokeColor=#FF8000;fontColor=#CC6600;" vertex="1" parent="1">
          <mxGeometry x="310" y="480" width="170" height="50" as="geometry" />
        </mxCell>
        <mxCell id="f8T4_GTA3KpqETQEiIr7-16" value="hooksProxyStore&lt;br&gt;activeSeries&lt;br&gt;序列ID" style="rounded=0;whiteSpace=wrap;html=1;strokeWidth=1;strokeColor=#FF8000;fontColor=#CC6600;" vertex="1" parent="1">
          <mxGeometry x="520" y="480" width="110" height="50" as="geometry" />
        </mxCell>
      </root>
    </mxGraphModel>
  </diagram>
  <diagram id="m2E5OhCdITRILelNDdLX" name="dicom拉取">
    <mxGraphModel dx="1331" dy="790" grid="1" gridSize="10" guides="1" tooltips="1" connect="1" arrows="1" fold="1" page="1" pageScale="1" pageWidth="827" pageHeight="1169" math="0" shadow="0">
      <root>
        <mxCell id="0" />
        <mxCell id="1" parent="0" />
        <mxCell id="61TOEz5qV5UfzFVVAqj--2" value="获取activeSeries" style="rounded=0;whiteSpace=wrap;html=1;" vertex="1" parent="1">
          <mxGeometry x="260" y="40" width="120" height="60" as="geometry" />
        </mxCell>
        <mxCell id="61TOEz5qV5UfzFVVAqj--4" value="常规模式&lt;div&gt;dicom加载器&lt;/div&gt;" style="rounded=0;whiteSpace=wrap;html=1;" vertex="1" parent="1">
          <mxGeometry x="100" y="360" width="120" height="60" as="geometry" />
        </mxCell>
        <mxCell id="61TOEz5qV5UfzFVVAqj--5" value="mpr&lt;div&gt;&lt;div&gt;dicom加载器&lt;/div&gt;&lt;/div&gt;" style="rounded=0;whiteSpace=wrap;html=1;" vertex="1" parent="1">
          <mxGeometry x="430" y="360" width="120" height="60" as="geometry" />
        </mxCell>
        <mxCell id="61TOEz5qV5UfzFVVAqj--6" value="创建dicom拉取地址" style="rounded=0;whiteSpace=wrap;html=1;" vertex="1" parent="1">
          <mxGeometry x="250" y="180" width="140" height="60" as="geometry" />
        </mxCell>
      </root>
    </mxGraphModel>
  </diagram>
  <diagram id="rbHGBFfvOv6rpGHGIKEy" name="VolumeRender">
    <mxGraphModel dx="1331" dy="790" grid="1" gridSize="10" guides="1" tooltips="1" connect="1" arrows="1" fold="1" page="1" pageScale="1" pageWidth="827" pageHeight="1169" math="0" shadow="0">
      <root>
        <mxCell id="0" />
        <mxCell id="1" parent="0" />
        <mxCell id="Zd6I5yMDtMGi_UIGZWp6-1" value="sliceResult" style="rounded=0;whiteSpace=wrap;html=1;" vertex="1" parent="1">
          <mxGeometry x="350" y="380" width="120" height="60" as="geometry" />
        </mxCell>
      </root>
    </mxGraphModel>
  </diagram>
  <diagram id="Nydb71bSAcxup5t_4-4M" name="ClipPlane">
    <mxGraphModel dx="1331" dy="790" grid="1" gridSize="10" guides="1" tooltips="1" connect="1" arrows="1" fold="1" page="1" pageScale="1" pageWidth="827" pageHeight="1169" math="0" shadow="0">
      <root>
        <mxCell id="0" />
        <mxCell id="1" parent="0" />
        <mxCell id="RktVBPr1DucZAmBN7651-1" value="ClipPlane" style="rounded=0;whiteSpace=wrap;html=1;" vertex="1" parent="1">
          <mxGeometry x="350" y="210" width="120" height="60" as="geometry" />
        </mxCell>
      </root>
    </mxGraphModel>
  </diagram>
  <diagram id="lS9pyTZuqnwhLf4VTJ5i" name="cornerstone">
    <mxGraphModel dx="1331" dy="790" grid="1" gridSize="10" guides="1" tooltips="1" connect="1" arrows="1" fold="1" page="1" pageScale="1" pageWidth="827" pageHeight="1169" math="0" shadow="0">
      <root>
        <mxCell id="0" />
        <mxCell id="1" parent="0" />
        <mxCell id="i6KMkA20sTFm8HgeOmZg-1" value="cornerstone" style="rounded=0;whiteSpace=wrap;html=1;" vertex="1" parent="1">
          <mxGeometry x="350" y="380" width="120" height="60" as="geometry" />
        </mxCell>
      </root>
    </mxGraphModel>
  </diagram>
  <diagram id="ZE1VF8OEmN4xa_Mu9JHT" name="cornerstoneTools">
    <mxGraphModel dx="1331" dy="790" grid="1" gridSize="10" guides="1" tooltips="1" connect="1" arrows="1" fold="1" page="1" pageScale="1" pageWidth="827" pageHeight="1169" math="0" shadow="0">
      <root>
        <mxCell id="0" />
        <mxCell id="1" parent="0" />
        <mxCell id="HgEnJl2pizjMQCa7M3p8-1" value="cornerstoneTools" style="rounded=0;whiteSpace=wrap;html=1;" vertex="1" parent="1">
          <mxGeometry x="350" y="380" width="120" height="60" as="geometry" />
        </mxCell>
      </root>
    </mxGraphModel>
  </diagram>
</mxfile>
